<mxfile host="app.diagrams.net" modified="2022-12-16T04:05:28.855Z" agent="5.0 (Macintosh; Intel Mac OS X 10_15_7) AppleWebKit/537.36 (KHTML, like Gecko) Chrome/108.0.0.0 Safari/537.36" etag="NGw7XLmj0_XIz3WLXaIp" version="20.2.7" type="github">
  <diagram id="1HrxDbcBMvkZbljMACYS" name="第 1 页">
    <mxGraphModel dx="1426" dy="801" grid="1" gridSize="10" guides="1" tooltips="1" connect="1" arrows="1" fold="1" page="1" pageScale="1" pageWidth="827" pageHeight="1169" math="0" shadow="0">
      <root>
        <mxCell id="0" />
        <mxCell id="1" parent="0" />
        <mxCell id="lqqXsGYl59WGSXcuUIUg-3" value="" style="edgeStyle=orthogonalEdgeStyle;rounded=0;orthogonalLoop=1;jettySize=auto;html=1;" edge="1" parent="1" source="lqqXsGYl59WGSXcuUIUg-1" target="lqqXsGYl59WGSXcuUIUg-2">
          <mxGeometry relative="1" as="geometry" />
        </mxCell>
        <mxCell id="lqqXsGYl59WGSXcuUIUg-1" value="平台分类" style="rounded=1;whiteSpace=wrap;html=1;fillColor=#dae8fc;strokeColor=#6c8ebf;" vertex="1" parent="1">
          <mxGeometry x="320" y="140" width="120" height="60" as="geometry" />
        </mxCell>
        <mxCell id="lqqXsGYl59WGSXcuUIUg-5" value="" style="edgeStyle=orthogonalEdgeStyle;rounded=0;orthogonalLoop=1;jettySize=auto;html=1;" edge="1" parent="1" source="lqqXsGYl59WGSXcuUIUg-2" target="lqqXsGYl59WGSXcuUIUg-4">
          <mxGeometry relative="1" as="geometry" />
        </mxCell>
        <mxCell id="lqqXsGYl59WGSXcuUIUg-19" style="edgeStyle=orthogonalEdgeStyle;rounded=0;orthogonalLoop=1;jettySize=auto;html=1;entryX=1;entryY=0.5;entryDx=0;entryDy=0;" edge="1" parent="1" source="lqqXsGYl59WGSXcuUIUg-2" target="lqqXsGYl59WGSXcuUIUg-1">
          <mxGeometry relative="1" as="geometry">
            <Array as="points">
              <mxPoint x="460" y="310" />
              <mxPoint x="460" y="170" />
            </Array>
          </mxGeometry>
        </mxCell>
        <mxCell id="lqqXsGYl59WGSXcuUIUg-20" value="绑定分类" style="edgeLabel;html=1;align=center;verticalAlign=middle;resizable=0;points=[];" vertex="1" connectable="0" parent="lqqXsGYl59WGSXcuUIUg-19">
          <mxGeometry x="0.3667" relative="1" as="geometry">
            <mxPoint y="23" as="offset" />
          </mxGeometry>
        </mxCell>
        <mxCell id="lqqXsGYl59WGSXcuUIUg-2" value="平台品牌" style="rounded=1;whiteSpace=wrap;html=1;fillColor=#dae8fc;strokeColor=#6c8ebf;" vertex="1" parent="1">
          <mxGeometry x="320" y="280" width="120" height="60" as="geometry" />
        </mxCell>
        <mxCell id="lqqXsGYl59WGSXcuUIUg-7" value="" style="edgeStyle=orthogonalEdgeStyle;rounded=0;orthogonalLoop=1;jettySize=auto;html=1;" edge="1" parent="1" source="lqqXsGYl59WGSXcuUIUg-4" target="lqqXsGYl59WGSXcuUIUg-6">
          <mxGeometry relative="1" as="geometry" />
        </mxCell>
        <mxCell id="lqqXsGYl59WGSXcuUIUg-9" value="" style="edgeStyle=orthogonalEdgeStyle;rounded=0;orthogonalLoop=1;jettySize=auto;html=1;" edge="1" parent="1" source="lqqXsGYl59WGSXcuUIUg-4" target="lqqXsGYl59WGSXcuUIUg-8">
          <mxGeometry relative="1" as="geometry" />
        </mxCell>
        <mxCell id="lqqXsGYl59WGSXcuUIUg-11" value="" style="edgeStyle=orthogonalEdgeStyle;rounded=0;orthogonalLoop=1;jettySize=auto;html=1;" edge="1" parent="1" source="lqqXsGYl59WGSXcuUIUg-4" target="lqqXsGYl59WGSXcuUIUg-10">
          <mxGeometry relative="1" as="geometry" />
        </mxCell>
        <mxCell id="lqqXsGYl59WGSXcuUIUg-22" value="绑定分类" style="edgeStyle=orthogonalEdgeStyle;rounded=0;orthogonalLoop=1;jettySize=auto;html=1;exitX=0;exitY=0.25;exitDx=0;exitDy=0;entryX=0;entryY=0.5;entryDx=0;entryDy=0;" edge="1" parent="1" source="lqqXsGYl59WGSXcuUIUg-4" target="lqqXsGYl59WGSXcuUIUg-1">
          <mxGeometry x="0.0137" relative="1" as="geometry">
            <Array as="points">
              <mxPoint x="270" y="435" />
              <mxPoint x="270" y="170" />
            </Array>
            <mxPoint as="offset" />
          </mxGeometry>
        </mxCell>
        <mxCell id="lqqXsGYl59WGSXcuUIUg-4" value="属性组" style="rounded=1;whiteSpace=wrap;html=1;fillColor=#dae8fc;strokeColor=#6c8ebf;" vertex="1" parent="1">
          <mxGeometry x="320" y="420" width="120" height="60" as="geometry" />
        </mxCell>
        <mxCell id="lqqXsGYl59WGSXcuUIUg-13" style="edgeStyle=orthogonalEdgeStyle;rounded=0;orthogonalLoop=1;jettySize=auto;html=1;entryX=0.5;entryY=0;entryDx=0;entryDy=0;" edge="1" parent="1" source="lqqXsGYl59WGSXcuUIUg-6" target="lqqXsGYl59WGSXcuUIUg-12">
          <mxGeometry relative="1" as="geometry">
            <Array as="points">
              <mxPoint x="240" y="640" />
              <mxPoint x="380" y="640" />
            </Array>
          </mxGeometry>
        </mxCell>
        <mxCell id="lqqXsGYl59WGSXcuUIUg-6" value="作用域：销售属性" style="ellipse;whiteSpace=wrap;html=1;fillColor=#dae8fc;strokeColor=#6c8ebf;rounded=1;" vertex="1" parent="1">
          <mxGeometry x="180" y="560" width="120" height="60" as="geometry" />
        </mxCell>
        <mxCell id="lqqXsGYl59WGSXcuUIUg-16" value="预设当前属性可选值" style="edgeStyle=orthogonalEdgeStyle;rounded=0;orthogonalLoop=1;jettySize=auto;html=1;entryX=0.5;entryY=0;entryDx=0;entryDy=0;" edge="1" parent="1" source="lqqXsGYl59WGSXcuUIUg-8" target="lqqXsGYl59WGSXcuUIUg-12">
          <mxGeometry x="0.3913" relative="1" as="geometry">
            <Array as="points">
              <mxPoint x="520" y="640" />
              <mxPoint x="380" y="640" />
            </Array>
            <mxPoint as="offset" />
          </mxGeometry>
        </mxCell>
        <mxCell id="lqqXsGYl59WGSXcuUIUg-8" value="作用域：全部(既是销售属性也是公共属性)" style="ellipse;whiteSpace=wrap;html=1;fillColor=#dae8fc;strokeColor=#6c8ebf;rounded=1;" vertex="1" parent="1">
          <mxGeometry x="460" y="560" width="120" height="60" as="geometry" />
        </mxCell>
        <mxCell id="lqqXsGYl59WGSXcuUIUg-10" value="作用域：公共属性" style="ellipse;whiteSpace=wrap;html=1;fillColor=#dae8fc;strokeColor=#6c8ebf;rounded=1;" vertex="1" parent="1">
          <mxGeometry x="320" y="560" width="120" height="60" as="geometry" />
        </mxCell>
        <mxCell id="lqqXsGYl59WGSXcuUIUg-12" value="&lt;ul&gt;&lt;li&gt;Value 1&lt;/li&gt;&lt;li&gt;Value 2&lt;/li&gt;&lt;li&gt;......&lt;/li&gt;&lt;li&gt;Value N&lt;/li&gt;&lt;/ul&gt;" style="text;strokeColor=none;fillColor=none;html=1;whiteSpace=wrap;verticalAlign=middle;overflow=hidden;" vertex="1" parent="1">
          <mxGeometry x="330" y="710" width="100" height="80" as="geometry" />
        </mxCell>
      </root>
    </mxGraphModel>
  </diagram>
</mxfile>
